<svg xmlns="http://www.w3.org/2000/svg" viewBox="0 0 64 64">
  <!-- Background -->
  <rect width="64" height="64" rx="12" ry="12" fill="#4A6FFF" />
  
  <!-- Circular testing icon with checkmark -->
  <circle cx="32" cy="32" r="20" fill="none" stroke="white" stroke-width="5" />
  
  <!-- Checkmark -->
  <path d="M22 32 L30 40 L44 24" fill="none" stroke="white" stroke-width="5" stroke-linecap="round" stroke-linejoin="round" />
  
  <!-- Automation element (small gear) -->
  <circle cx="48" cy="16" r="8" fill="#FFD700" />
  <circle cx="48" cy="16" r="3" fill="#4A6FFF" />
  
  <!-- Gear teeth -->
  <rect x="47" y="5" width="2" height="4" fill="#FFD700" />
  <rect x="47" y="23" width="2" height="4" fill="#FFD700" />
  <rect x="37" y="15" width="4" height="2" fill="#FFD700" />
  <rect x="55" y="15" width="4" height="2" fill="#FFD700" />
  
  <!-- Diagonal teeth -->
  <rect x="40" y="8" width="4" height="2" transform="rotate(45, 42, 9)" fill="#FFD700" />
  <rect x="52" y="20" width="4" height="2" transform="rotate(45, 54, 21)" fill="#FFD700" />
  <rect x="40" y="20" width="4" height="2" transform="rotate(-45, 42, 21)" fill="#FFD700" />
  <rect x="52" y="8" width="4" height="2" transform="rotate(-45, 54, 9)" fill="#FFD700" />
</svg>
